<svg xmlns="http://www.w3.org/2000/svg" xmlns:xlink="http://www.w3.org/1999/xlink" width="500" zoomAndPan="magnify" viewBox="0 0 375 89.999999" height="120" preserveAspectRatio="xMidYMid meet" version="1.0"><defs><g/><clipPath id="ebdfd2c30d"><path d="M 21.164062 18 L 83.414062 18 L 83.414062 75 L 21.164062 75 Z M 21.164062 18 " clip-rule="nonzero"/></clipPath><clipPath id="ff4d11131d"><path d="M 51.84375 18.769531 C 55.238281 17.539062 59.289062 18.414062 61.84375 20.964844 C 68.011719 27.070312 74.171875 33.203125 80.34375 39.308594 C 82.101562 41.042969 83.191406 43.421875 83.316406 45.882812 C 83.414062 48.714844 82.101562 51.496094 80.019531 53.40625 C 73.886719 59.464844 67.816406 65.558594 61.667969 71.605469 C 58.609375 74.535156 53.34375 75.234375 49.910156 72.589844 C 49.898438 70.371094 50.40625 68.132812 51.460938 66.175781 C 52.488281 64.253906 54.421875 62.761719 56.640625 62.554688 C 58.359375 62.320312 59.996094 63.097656 61.707031 63.046875 C 62.910156 63.097656 64.285156 62.789062 64.976562 61.730469 C 65.511719 60.695312 65.152344 59.488281 65.472656 58.40625 C 65.90625 57.925781 66.464844 57.566406 66.972656 57.175781 C 66.835938 56.753906 66.664062 56.347656 66.527344 55.941406 C 67.714844 55.15625 67.121094 53.761719 67.183594 52.605469 C 67.964844 51.941406 69.238281 51.855469 69.761719 50.90625 C 69.734375 49.652344 68.65625 48.777344 68.050781 47.765625 C 67.132812 46.339844 65.894531 44.675781 66.652344 42.917969 C 67.605469 39.972656 67.28125 36.6875 65.820312 33.964844 C 64.382812 31.023438 61.683594 28.84375 58.734375 27.511719 C 55.683594 26.207031 52.375 25.582031 49.070312 25.421875 C 47.085938 25.320312 45.140625 25.800781 43.207031 26.148438 C 44.460938 24.71875 45.859375 23.4375 47.199219 22.070312 C 48.523438 20.679688 49.984375 19.351562 51.84375 18.769531 Z M 25.664062 30.160156 C 24.039062 31.601562 24.214844 34.335938 25.859375 35.6875 C 28.425781 38.164062 30.867188 40.761719 33.492188 43.175781 C 33.519531 41.203125 33.617188 39.222656 33.804688 37.265625 C 34.746094 32.78125 37.78125 28.792969 41.917969 26.738281 C 40.777344 25.542969 39.625 24.347656 38.4375 23.203125 C 37.65625 22.453125 36.652344 21.761719 35.511719 21.863281 C 34.210938 21.824219 33.148438 22.675781 32.292969 23.546875 C 30.097656 25.777344 27.855469 27.945312 25.664062 30.160156 Z M 43.542969 33.472656 C 42.921875 34.113281 42.054688 34.816406 42.328125 35.824219 C 42.949219 36.96875 44.0625 37.757812 44.941406 38.707031 C 45.535156 39.246094 46.242188 40.132812 47.160156 39.726562 C 48.277344 39.039062 49.105469 38.003906 50.058594 37.117188 C 50.605469 36.527344 51.410156 35.847656 51.089844 34.949219 C 50.28125 33.742188 49.144531 32.808594 48.125 31.785156 C 47.582031 31.316406 46.800781 30.578125 46.070312 31.15625 C 45.101562 31.808594 44.359375 32.695312 43.542969 33.472656 Z M 22.550781 44.332031 C 22.105469 44.824219 21.476562 45.269531 21.398438 45.980469 C 21.164062 47.472656 22.789062 48.234375 23.605469 49.230469 C 24.535156 49.996094 25.390625 51.597656 26.816406 51.089844 C 28.105469 50.316406 29.019531 49.085938 30.109375 48.074219 C 30.679688 47.445312 31.597656 46.597656 31.078125 45.675781 C 30.097656 44.34375 28.824219 43.25 27.644531 42.089844 C 27.050781 41.449219 26.023438 41.09375 25.277344 41.710938 C 24.273438 42.472656 23.46875 43.46875 22.550781 44.332031 Z M 39.09375 43.816406 C 36.863281 45.996094 34.683594 48.222656 32.441406 50.402344 C 31.671875 51.140625 30.890625 52.027344 30.878906 53.160156 C 30.691406 54.390625 31.203125 55.621094 32.105469 56.472656 C 33.941406 58.304688 35.824219 60.105469 37.632812 61.964844 C 38.414062 62.738281 39.15625 63.589844 40.058594 64.242188 C 41.523438 65.3125 43.714844 65.078125 44.96875 63.796875 C 47.457031 61.347656 49.921875 58.871094 52.402344 56.433594 C 53.914062 55.019531 54.050781 52.398438 52.511719 50.945312 C 50.109375 48.519531 47.679688 46.105469 45.253906 43.714844 C 44.25 42.695312 42.785156 41.90625 41.324219 42.351562 C 40.46875 42.582031 39.738281 43.1875 39.09375 43.816406 Z M 39.09375 43.816406 " clip-rule="nonzero"/></clipPath><linearGradient x1="24.317866" gradientTransform="matrix(0.123905, 0, 0, 0.123124, 21.375572, 18.217409)" y1="-29.46718" x2="488.453573" gradientUnits="userSpaceOnUse" y2="474.381164" id="2ae2a91004"><stop stop-opacity="1" stop-color="rgb(0%, 8.999634%, 62.69989%)" offset="0"/><stop stop-opacity="1" stop-color="rgb(0%, 8.999634%, 62.69989%)" offset="0.25"/><stop stop-opacity="1" stop-color="rgb(0%, 9.028625%, 62.705994%)" offset="0.3125"/><stop stop-opacity="1" stop-color="rgb(0%, 9.368896%, 62.783813%)" offset="0.316406"/><stop stop-opacity="1" stop-color="rgb(0%, 9.680176%, 62.854004%)" offset="0.320312"/><stop stop-opacity="1" stop-color="rgb(0%, 9.989929%, 62.924194%)" offset="0.324219"/><stop stop-opacity="1" stop-color="rgb(0%, 10.299683%, 62.995911%)" offset="0.328125"/><stop stop-opacity="1" stop-color="rgb(0%, 10.609436%, 63.066101%)" offset="0.332031"/><stop stop-opacity="1" stop-color="rgb(0%, 10.920715%, 63.137817%)" offset="0.335937"/><stop stop-opacity="1" stop-color="rgb(0%, 11.230469%, 63.208008%)" offset="0.339844"/><stop stop-opacity="1" stop-color="rgb(0%, 11.540222%, 63.278198%)" offset="0.34375"/><stop stop-opacity="1" stop-color="rgb(0%, 11.849976%, 63.348389%)" offset="0.347656"/><stop stop-opacity="1" stop-color="rgb(0%, 12.161255%, 63.420105%)" offset="0.351562"/><stop stop-opacity="1" stop-color="rgb(0%, 12.471008%, 63.490295%)" offset="0.355469"/><stop stop-opacity="1" stop-color="rgb(0%, 12.780762%, 63.562012%)" offset="0.359375"/><stop stop-opacity="1" stop-color="rgb(0%, 13.090515%, 63.632202%)" offset="0.363281"/><stop stop-opacity="1" stop-color="rgb(0%, 13.400269%, 63.702393%)" offset="0.367188"/><stop stop-opacity="1" stop-color="rgb(0%, 13.710022%, 63.772583%)" offset="0.371094"/><stop stop-opacity="1" stop-color="rgb(0%, 14.021301%, 63.844299%)" offset="0.375"/><stop stop-opacity="1" stop-color="rgb(0%, 14.331055%, 63.91449%)" offset="0.378906"/><stop stop-opacity="1" stop-color="rgb(0%, 14.640808%, 63.986206%)" offset="0.382812"/><stop stop-opacity="1" stop-color="rgb(0%, 14.950562%, 64.056396%)" offset="0.386719"/><stop stop-opacity="1" stop-color="rgb(0%, 15.261841%, 64.128113%)" offset="0.390625"/><stop stop-opacity="1" stop-color="rgb(0%, 15.571594%, 64.198303%)" offset="0.394531"/><stop stop-opacity="1" stop-color="rgb(0%, 15.881348%, 64.268494%)" offset="0.398437"/><stop stop-opacity="1" stop-color="rgb(0%, 16.191101%, 64.338684%)" offset="0.402344"/><stop stop-opacity="1" stop-color="rgb(0%, 16.50238%, 64.4104%)" offset="0.40625"/><stop stop-opacity="1" stop-color="rgb(0%, 16.812134%, 64.480591%)" offset="0.410156"/><stop stop-opacity="1" stop-color="rgb(0%, 17.121887%, 64.552307%)" offset="0.414062"/><stop stop-opacity="1" stop-color="rgb(0%, 17.431641%, 64.622498%)" offset="0.417969"/><stop stop-opacity="1" stop-color="rgb(0%, 17.74292%, 64.692688%)" offset="0.421875"/><stop stop-opacity="1" stop-color="rgb(0%, 18.052673%, 64.762878%)" offset="0.425781"/><stop stop-opacity="1" stop-color="rgb(0%, 18.362427%, 64.834595%)" offset="0.429688"/><stop stop-opacity="1" stop-color="rgb(0%, 18.67218%, 64.904785%)" offset="0.433594"/><stop stop-opacity="1" stop-color="rgb(0%, 18.983459%, 64.976501%)" offset="0.4375"/><stop stop-opacity="1" stop-color="rgb(0%, 19.293213%, 65.046692%)" offset="0.441406"/><stop stop-opacity="1" stop-color="rgb(0%, 19.602966%, 65.118408%)" offset="0.445312"/><stop stop-opacity="1" stop-color="rgb(0%, 19.91272%, 65.188599%)" offset="0.449219"/><stop stop-opacity="1" stop-color="rgb(0%, 20.223999%, 65.258789%)" offset="0.453125"/><stop stop-opacity="1" stop-color="rgb(0%, 20.533752%, 65.328979%)" offset="0.457031"/><stop stop-opacity="1" stop-color="rgb(0%, 20.843506%, 65.400696%)" offset="0.460938"/><stop stop-opacity="1" stop-color="rgb(0%, 21.153259%, 65.470886%)" offset="0.464844"/><stop stop-opacity="1" stop-color="rgb(0%, 21.463013%, 65.542603%)" offset="0.46875"/><stop stop-opacity="1" stop-color="rgb(0%, 21.772766%, 65.612793%)" offset="0.472656"/><stop stop-opacity="1" stop-color="rgb(0%, 22.084045%, 65.682983%)" offset="0.476562"/><stop stop-opacity="1" stop-color="rgb(0%, 22.393799%, 65.753174%)" offset="0.480469"/><stop stop-opacity="1" stop-color="rgb(0%, 22.703552%, 65.82489%)" offset="0.484375"/><stop stop-opacity="1" stop-color="rgb(0%, 23.013306%, 65.895081%)" offset="0.488281"/><stop stop-opacity="1" stop-color="rgb(0%, 23.324585%, 65.966797%)" offset="0.492188"/><stop stop-opacity="1" stop-color="rgb(0%, 23.634338%, 66.036987%)" offset="0.496094"/><stop stop-opacity="1" stop-color="rgb(0%, 23.944092%, 66.107178%)" offset="0.5"/><stop stop-opacity="1" stop-color="rgb(0%, 24.253845%, 66.177368%)" offset="0.503906"/><stop stop-opacity="1" stop-color="rgb(0%, 24.565125%, 66.249084%)" offset="0.507812"/><stop stop-opacity="1" stop-color="rgb(0%, 24.874878%, 66.319275%)" offset="0.511719"/><stop stop-opacity="1" stop-color="rgb(0%, 25.184631%, 66.390991%)" offset="0.515625"/><stop stop-opacity="1" stop-color="rgb(0%, 25.494385%, 66.461182%)" offset="0.519531"/><stop stop-opacity="1" stop-color="rgb(0%, 25.805664%, 66.532898%)" offset="0.523438"/><stop stop-opacity="1" stop-color="rgb(0%, 26.115417%, 66.603088%)" offset="0.527344"/><stop stop-opacity="1" stop-color="rgb(0%, 26.425171%, 66.673279%)" offset="0.53125"/><stop stop-opacity="1" stop-color="rgb(0%, 26.734924%, 66.743469%)" offset="0.535156"/><stop stop-opacity="1" stop-color="rgb(0%, 27.046204%, 66.815186%)" offset="0.539062"/><stop stop-opacity="1" stop-color="rgb(0%, 27.355957%, 66.885376%)" offset="0.542969"/><stop stop-opacity="1" stop-color="rgb(0%, 27.66571%, 66.957092%)" offset="0.546875"/><stop stop-opacity="1" stop-color="rgb(0%, 27.975464%, 67.027283%)" offset="0.550781"/><stop stop-opacity="1" stop-color="rgb(0%, 28.286743%, 67.097473%)" offset="0.554687"/><stop stop-opacity="1" stop-color="rgb(0%, 28.596497%, 67.167664%)" offset="0.558594"/><stop stop-opacity="1" stop-color="rgb(0%, 28.90625%, 67.23938%)" offset="0.5625"/><stop stop-opacity="1" stop-color="rgb(0%, 29.216003%, 67.30957%)" offset="0.566406"/><stop stop-opacity="1" stop-color="rgb(0%, 29.525757%, 67.381287%)" offset="0.570312"/><stop stop-opacity="1" stop-color="rgb(0%, 29.83551%, 67.451477%)" offset="0.574219"/><stop stop-opacity="1" stop-color="rgb(0%, 30.14679%, 67.521667%)" offset="0.578125"/><stop stop-opacity="1" stop-color="rgb(0%, 30.456543%, 67.591858%)" offset="0.582031"/><stop stop-opacity="1" stop-color="rgb(0%, 30.766296%, 67.663574%)" offset="0.585938"/><stop stop-opacity="1" stop-color="rgb(0%, 31.07605%, 67.733765%)" offset="0.589844"/><stop stop-opacity="1" stop-color="rgb(0%, 31.387329%, 67.805481%)" offset="0.59375"/><stop stop-opacity="1" stop-color="rgb(0%, 31.697083%, 67.875671%)" offset="0.597656"/><stop stop-opacity="1" stop-color="rgb(0%, 32.006836%, 67.947388%)" offset="0.601562"/><stop stop-opacity="1" stop-color="rgb(0%, 32.316589%, 68.017578%)" offset="0.605469"/><stop stop-opacity="1" stop-color="rgb(0%, 32.627869%, 68.087769%)" offset="0.609375"/><stop stop-opacity="1" stop-color="rgb(0%, 32.937622%, 68.157959%)" offset="0.613281"/><stop stop-opacity="1" stop-color="rgb(0%, 33.247375%, 68.229675%)" offset="0.617187"/><stop stop-opacity="1" stop-color="rgb(0%, 33.557129%, 68.299866%)" offset="0.621094"/><stop stop-opacity="1" stop-color="rgb(0%, 33.868408%, 68.371582%)" offset="0.625"/><stop stop-opacity="1" stop-color="rgb(0%, 34.178162%, 68.441772%)" offset="0.628906"/><stop stop-opacity="1" stop-color="rgb(0%, 34.487915%, 68.511963%)" offset="0.632812"/><stop stop-opacity="1" stop-color="rgb(0%, 34.797668%, 68.582153%)" offset="0.636719"/><stop stop-opacity="1" stop-color="rgb(0%, 35.108948%, 68.65387%)" offset="0.640625"/><stop stop-opacity="1" stop-color="rgb(0%, 35.418701%, 68.72406%)" offset="0.644531"/><stop stop-opacity="1" stop-color="rgb(0%, 35.728455%, 68.795776%)" offset="0.648437"/><stop stop-opacity="1" stop-color="rgb(0%, 36.038208%, 68.865967%)" offset="0.652344"/><stop stop-opacity="1" stop-color="rgb(0%, 36.347961%, 68.936157%)" offset="0.65625"/><stop stop-opacity="1" stop-color="rgb(0%, 36.657715%, 69.006348%)" offset="0.660156"/><stop stop-opacity="1" stop-color="rgb(0%, 36.968994%, 69.078064%)" offset="0.664062"/><stop stop-opacity="1" stop-color="rgb(0%, 37.278748%, 69.148254%)" offset="0.667969"/><stop stop-opacity="1" stop-color="rgb(0%, 37.588501%, 69.219971%)" offset="0.671875"/><stop stop-opacity="1" stop-color="rgb(0%, 37.898254%, 69.290161%)" offset="0.675781"/><stop stop-opacity="1" stop-color="rgb(0%, 38.209534%, 69.361877%)" offset="0.679687"/><stop stop-opacity="1" stop-color="rgb(0%, 38.519287%, 69.432068%)" offset="0.683594"/><stop stop-opacity="1" stop-color="rgb(0%, 38.829041%, 69.502258%)" offset="0.6875"/><stop stop-opacity="1" stop-color="rgb(0%, 39.138794%, 69.572449%)" offset="0.691406"/><stop stop-opacity="1" stop-color="rgb(0%, 39.450073%, 69.644165%)" offset="0.695312"/><stop stop-opacity="1" stop-color="rgb(0%, 39.759827%, 69.714355%)" offset="0.699219"/><stop stop-opacity="1" stop-color="rgb(0%, 40.06958%, 69.786072%)" offset="0.703125"/><stop stop-opacity="1" stop-color="rgb(0%, 40.379333%, 69.856262%)" offset="0.707031"/><stop stop-opacity="1" stop-color="rgb(0%, 40.690613%, 69.926453%)" offset="0.710938"/><stop stop-opacity="1" stop-color="rgb(0%, 41.000366%, 69.996643%)" offset="0.714844"/><stop stop-opacity="1" stop-color="rgb(0%, 41.31012%, 70.068359%)" offset="0.71875"/><stop stop-opacity="1" stop-color="rgb(0%, 41.619873%, 70.13855%)" offset="0.722656"/><stop stop-opacity="1" stop-color="rgb(0%, 41.931152%, 70.210266%)" offset="0.726562"/><stop stop-opacity="1" stop-color="rgb(0%, 42.240906%, 70.280457%)" offset="0.730469"/><stop stop-opacity="1" stop-color="rgb(0%, 42.550659%, 70.350647%)" offset="0.734375"/><stop stop-opacity="1" stop-color="rgb(0%, 42.860413%, 70.420837%)" offset="0.738281"/><stop stop-opacity="1" stop-color="rgb(0%, 43.171692%, 70.492554%)" offset="0.742188"/><stop stop-opacity="1" stop-color="rgb(0%, 43.481445%, 70.562744%)" offset="0.746094"/><stop stop-opacity="1" stop-color="rgb(0%, 43.791199%, 70.63446%)" offset="0.75"/><stop stop-opacity="1" stop-color="rgb(0%, 44.100952%, 70.704651%)" offset="0.753906"/><stop stop-opacity="1" stop-color="rgb(0%, 44.410706%, 70.776367%)" offset="0.757812"/><stop stop-opacity="1" stop-color="rgb(0%, 44.720459%, 70.846558%)" offset="0.761719"/><stop stop-opacity="1" stop-color="rgb(0%, 45.031738%, 70.916748%)" offset="0.765625"/><stop stop-opacity="1" stop-color="rgb(0%, 45.341492%, 70.986938%)" offset="0.769531"/><stop stop-opacity="1" stop-color="rgb(0%, 45.651245%, 71.058655%)" offset="0.773437"/><stop stop-opacity="1" stop-color="rgb(0%, 45.960999%, 71.128845%)" offset="0.777344"/><stop stop-opacity="1" stop-color="rgb(0%, 46.272278%, 71.200562%)" offset="0.78125"/><stop stop-opacity="1" stop-color="rgb(0%, 46.582031%, 71.270752%)" offset="0.785156"/><stop stop-opacity="1" stop-color="rgb(0%, 46.891785%, 71.340942%)" offset="0.789062"/><stop stop-opacity="1" stop-color="rgb(0%, 47.201538%, 71.411133%)" offset="0.792969"/><stop stop-opacity="1" stop-color="rgb(0%, 47.512817%, 71.482849%)" offset="0.796875"/><stop stop-opacity="1" stop-color="rgb(0%, 47.822571%, 71.55304%)" offset="0.800781"/><stop stop-opacity="1" stop-color="rgb(0%, 48.132324%, 71.624756%)" offset="0.804688"/><stop stop-opacity="1" stop-color="rgb(0%, 48.442078%, 71.694946%)" offset="0.808594"/><stop stop-opacity="1" stop-color="rgb(0%, 48.753357%, 71.765137%)" offset="0.8125"/><stop stop-opacity="1" stop-color="rgb(0%, 49.06311%, 71.835327%)" offset="0.816406"/><stop stop-opacity="1" stop-color="rgb(0%, 49.372864%, 71.907043%)" offset="0.820312"/><stop stop-opacity="1" stop-color="rgb(0%, 49.682617%, 71.977234%)" offset="0.824219"/><stop stop-opacity="1" stop-color="rgb(0%, 49.993896%, 72.04895%)" offset="0.828125"/><stop stop-opacity="1" stop-color="rgb(0%, 50.30365%, 72.119141%)" offset="0.832031"/><stop stop-opacity="1" stop-color="rgb(0%, 50.613403%, 72.190857%)" offset="0.835938"/><stop stop-opacity="1" stop-color="rgb(0%, 50.923157%, 72.261047%)" offset="0.839844"/><stop stop-opacity="1" stop-color="rgb(0%, 51.234436%, 72.331238%)" offset="0.84375"/><stop stop-opacity="1" stop-color="rgb(0%, 51.544189%, 72.401428%)" offset="0.847656"/><stop stop-opacity="1" stop-color="rgb(0%, 51.853943%, 72.473145%)" offset="0.851563"/><stop stop-opacity="1" stop-color="rgb(0%, 52.163696%, 72.543335%)" offset="0.855469"/><stop stop-opacity="1" stop-color="rgb(0%, 52.47345%, 72.615051%)" offset="0.859375"/><stop stop-opacity="1" stop-color="rgb(0%, 52.783203%, 72.685242%)" offset="0.863281"/><stop stop-opacity="1" stop-color="rgb(0%, 53.094482%, 72.755432%)" offset="0.867188"/><stop stop-opacity="1" stop-color="rgb(0%, 53.404236%, 72.825623%)" offset="0.871094"/><stop stop-opacity="1" stop-color="rgb(0%, 53.713989%, 72.897339%)" offset="0.875"/><stop stop-opacity="1" stop-color="rgb(0%, 54.023743%, 72.967529%)" offset="0.878906"/><stop stop-opacity="1" stop-color="rgb(0%, 54.335022%, 73.039246%)" offset="0.882812"/><stop stop-opacity="1" stop-color="rgb(0%, 54.644775%, 73.109436%)" offset="0.886719"/><stop stop-opacity="1" stop-color="rgb(0%, 54.954529%, 73.179626%)" offset="0.890625"/><stop stop-opacity="1" stop-color="rgb(0%, 55.264282%, 73.249817%)" offset="0.894531"/><stop stop-opacity="1" stop-color="rgb(0%, 55.575562%, 73.321533%)" offset="0.898437"/><stop stop-opacity="1" stop-color="rgb(0%, 55.885315%, 73.391724%)" offset="0.902344"/><stop stop-opacity="1" stop-color="rgb(0%, 56.195068%, 73.46344%)" offset="0.90625"/><stop stop-opacity="1" stop-color="rgb(0%, 56.504822%, 73.53363%)" offset="0.910156"/><stop stop-opacity="1" stop-color="rgb(0%, 56.816101%, 73.605347%)" offset="0.914062"/><stop stop-opacity="1" stop-color="rgb(0%, 57.125854%, 73.675537%)" offset="0.917969"/><stop stop-opacity="1" stop-color="rgb(0%, 57.435608%, 73.745728%)" offset="0.921875"/><stop stop-opacity="1" stop-color="rgb(0%, 57.745361%, 73.815918%)" offset="0.925781"/><stop stop-opacity="1" stop-color="rgb(0%, 58.056641%, 73.887634%)" offset="0.929688"/><stop stop-opacity="1" stop-color="rgb(0%, 58.366394%, 73.957825%)" offset="0.933594"/><stop stop-opacity="1" stop-color="rgb(0%, 58.676147%, 74.029541%)" offset="0.9375"/><stop stop-opacity="1" stop-color="rgb(0%, 58.985901%, 74.099731%)" offset="0.941406"/><stop stop-opacity="1" stop-color="rgb(0%, 59.295654%, 74.169922%)" offset="0.945312"/><stop stop-opacity="1" stop-color="rgb(0%, 59.605408%, 74.240112%)" offset="0.949219"/><stop stop-opacity="1" stop-color="rgb(0%, 59.916687%, 74.311829%)" offset="0.953125"/><stop stop-opacity="1" stop-color="rgb(0%, 60.22644%, 74.382019%)" offset="0.957031"/><stop stop-opacity="1" stop-color="rgb(0%, 60.536194%, 74.453735%)" offset="0.960938"/><stop stop-opacity="1" stop-color="rgb(0%, 60.845947%, 74.523926%)" offset="0.964844"/><stop stop-opacity="1" stop-color="rgb(0%, 61.157227%, 74.594116%)" offset="0.96875"/><stop stop-opacity="1" stop-color="rgb(0%, 61.46698%, 74.664307%)" offset="0.972656"/><stop stop-opacity="1" stop-color="rgb(0%, 61.776733%, 74.736023%)" offset="0.976563"/><stop stop-opacity="1" stop-color="rgb(0%, 62.086487%, 74.806213%)" offset="0.980469"/><stop stop-opacity="1" stop-color="rgb(0%, 62.397766%, 74.87793%)" offset="0.984375"/><stop stop-opacity="1" stop-color="rgb(0%, 62.70752%, 74.94812%)" offset="0.988281"/><stop stop-opacity="1" stop-color="rgb(0%, 63.017273%, 75.019836%)" offset="0.992188"/><stop stop-opacity="1" stop-color="rgb(0%, 63.327026%, 75.090027%)" offset="0.996094"/><stop stop-opacity="1" stop-color="rgb(0%, 63.638306%, 75.160217%)" offset="1"/></linearGradient></defs><g clip-path="url(#ebdfd2c30d)"><g clip-path="url(#ff4d11131d)"><path fill="url(#2ae2a91004)" d="M 21.164062 17.539062 L 21.164062 75.234375 L 83.414062 75.234375 L 83.414062 17.539062 Z M 21.164062 17.539062 " fill-rule="nonzero"/></g></g><g fill="#2a2a2e" fill-opacity="1"><g transform="translate(100.854854, 66.730926)"><g><path d="M 17.59375 0.359375 C 23.875 0.359375 31.09375 -3.515625 31.09375 -10.9375 L 31.09375 -37.015625 L 25.765625 -37.015625 L 25.765625 -11 C 25.765625 -6.96875 21.421875 -4.921875 17.59375 -4.921875 C 13.71875 -4.921875 9.375 -6.90625 9.375 -10.9375 L 9.375 -37.015625 L 4.03125 -37.015625 L 4.03125 -11 C 4.03125 -3.515625 11.15625 0.359375 17.59375 0.359375 Z M 17.59375 0.359375 "/></g></g></g><g fill="#2a2a2e" fill-opacity="1"><g transform="translate(135.985028, 66.730926)"><g><path d="M 3.921875 0 L 9.0625 0 L 9.0625 -36.65625 L 3.921875 -36.65625 Z M 3.921875 0 "/></g></g></g><g fill="#2a2a2e" fill-opacity="1"><g transform="translate(148.969055, 66.730926)"><g><path d="M 24.8125 -3.71875 L 24.8125 0 L 29.6875 0 L 29.6875 -28.59375 L 24.5625 -28.59375 L 24.5625 -12.9375 C 24.5625 -7.953125 21.625 -4.140625 16.234375 -4.140625 C 10.046875 -4.140625 8.6875 -7.796875 8.6875 -13.09375 L 8.6875 -28.59375 L 3.5625 -28.59375 L 3.5625 -13.09375 C 3.5625 -4.96875 7.28125 0.421875 15.859375 0.421875 C 19.53125 0.421875 22.71875 -0.625 24.8125 -3.71875 Z M 24.8125 -3.71875 "/></g></g></g><g fill="#2a2a2e" fill-opacity="1"><g transform="translate(182.68565, 66.730926)"><g><path d="M 9 -24.8125 L 9 -28.28125 L 3.921875 -28.28125 L 3.921875 0 L 9 0 L 9 -15.34375 C 9 -20.53125 12.984375 -24.34375 17.75 -24.34375 C 18.59375 -24.34375 19.484375 -24.25 20.375 -23.984375 L 20.375 -28.484375 C 19.21875 -28.75 18.109375 -28.90625 17.015625 -28.90625 C 13.875 -28.90625 11.046875 -27.640625 9 -24.8125 Z M 9 -24.8125 "/></g></g></g><g fill="#2a2a2e" fill-opacity="1"><g transform="translate(204.674733, 66.730926)"><g><path d="M 33.25 -14.140625 C 33.25 -23.875 25.703125 -28.796875 18.0625 -28.796875 C 10.359375 -28.796875 2.71875 -23.921875 2.71875 -14.140625 C 2.71875 -4.390625 10.3125 0.53125 17.90625 0.53125 C 25.609375 0.53125 33.25 -4.34375 33.25 -14.140625 Z M 7.859375 -14.140625 C 7.859375 -20.890625 12.9375 -24.25 18.0625 -24.25 C 23.09375 -24.25 28.171875 -20.84375 28.171875 -14.140625 C 28.171875 -7.484375 23.09375 -4.078125 18.015625 -4.078125 C 12.9375 -4.078125 7.859375 -7.4375 7.859375 -14.140625 Z M 7.859375 -14.140625 "/></g></g></g><g fill="#2a2a2e" fill-opacity="1"><g transform="translate(241.009076, 66.730926)"><g><path d="M 22.40625 -28.328125 L 17.796875 -16.703125 L 14.34375 -6.859375 L 10.890625 -16.8125 L 6.234375 -28.328125 L 0.78125 -28.328125 L 12.296875 0.203125 L 16.390625 0.203125 L 27.859375 -28.328125 Z M 22.40625 -28.328125 "/></g></g></g><g fill="#2a2a2e" fill-opacity="1"><g transform="translate(269.751953, 66.730926)"><g><path d="M 31.734375 -15.390625 C 31.15625 -24.296875 24.25 -28.75 17.21875 -28.75 C 9.734375 -28.75 2.515625 -23.875 2.515625 -14.140625 C 2.515625 -4.390625 9.84375 0.53125 17.125 0.53125 C 22.9375 0.53125 28.75 -2.5625 30.890625 -8.75 L 25.609375 -8.75 C 23.921875 -5.546875 20.6875 -4.03125 17.171875 -4.03125 C 12.9375 -4.03125 7.640625 -7.375 7.640625 -12.9375 L 31.625 -12.9375 C 31.734375 -13.40625 31.78125 -13.921875 31.78125 -14.5 C 31.78125 -14.8125 31.78125 -15.078125 31.734375 -15.390625 Z M 26.34375 -17.171875 L 7.859375 -17.171875 C 8.90625 -22.203125 13.09375 -24.25 17.21875 -24.25 C 21.3125 -24.25 25.34375 -22.25 26.34375 -17.171875 Z M 26.34375 -17.171875 "/></g></g></g><g fill="#2a2a2e" fill-opacity="1"><g transform="translate(304.306232, 66.730926)"><g><path d="M 9 -24.8125 L 9 -28.28125 L 3.921875 -28.28125 L 3.921875 0 L 9 0 L 9 -15.34375 C 9 -20.53125 12.984375 -24.34375 17.75 -24.34375 C 18.59375 -24.34375 19.484375 -24.25 20.375 -23.984375 L 20.375 -28.484375 C 19.21875 -28.75 18.109375 -28.90625 17.015625 -28.90625 C 13.875 -28.90625 11.046875 -27.640625 9 -24.8125 Z M 9 -24.8125 "/></g></g></g></svg>