<svg xmlns="http://www.w3.org/2000/svg" xmlns:xlink="http://www.w3.org/1999/xlink" width="500" zoomAndPan="magnify" viewBox="0 0 375 89.999999" height="120" preserveAspectRatio="xMidYMid meet" version="1.0"><defs><g/><clipPath id="2e5a3c038c"><path d="M 9 8 L 88.5 8 L 88.5 81 L 9 81 Z M 9 8 " clip-rule="nonzero"/></clipPath><clipPath id="37b8ef4256"><path d="M 48.179688 9.578125 C 52.515625 7.996094 57.691406 9.117188 60.949219 12.394531 C 68.832031 20.246094 76.695312 28.125 84.574219 35.976562 C 86.824219 38.207031 88.214844 41.261719 88.375 44.429688 C 88.5 48.066406 86.824219 51.644531 84.164062 54.097656 C 76.332031 61.882812 68.578125 69.71875 60.730469 77.488281 C 56.820312 81.257812 50.09375 82.160156 45.710938 78.753906 C 45.695312 75.90625 46.34375 73.027344 47.691406 70.511719 C 49.003906 68.042969 51.472656 66.125 54.304688 65.855469 C 56.503906 65.554688 58.59375 66.554688 60.777344 66.488281 C 62.3125 66.554688 64.066406 66.15625 64.953125 64.796875 C 65.632812 63.46875 65.175781 61.917969 65.585938 60.523438 C 66.140625 59.90625 66.851562 59.449219 67.5 58.941406 C 67.328125 58.402344 67.105469 57.878906 66.933594 57.359375 C 68.449219 56.34375 67.691406 54.558594 67.769531 53.070312 C 68.765625 52.214844 70.398438 52.105469 71.0625 50.886719 C 71.03125 49.269531 69.652344 48.148438 68.878906 46.847656 C 67.707031 45.011719 66.125 42.875 67.089844 40.613281 C 68.308594 36.832031 67.898438 32.605469 66.03125 29.109375 C 64.195312 25.324219 60.746094 22.523438 56.976562 20.816406 C 53.085938 19.136719 48.859375 18.328125 44.636719 18.125 C 42.105469 17.996094 39.621094 18.613281 37.152344 19.058594 C 38.75 17.222656 40.539062 15.574219 42.246094 13.820312 C 43.941406 12.03125 45.808594 10.320312 48.179688 9.578125 Z M 14.742188 24.21875 C 12.671875 26.070312 12.894531 29.582031 14.996094 31.324219 C 18.273438 34.503906 21.390625 37.84375 24.746094 40.945312 C 24.777344 38.414062 24.902344 35.867188 25.140625 33.347656 C 26.34375 27.589844 30.21875 22.460938 35.503906 19.816406 C 34.050781 18.28125 32.578125 16.746094 31.058594 15.277344 C 30.0625 14.308594 28.78125 13.421875 27.324219 13.550781 C 25.664062 13.503906 24.300781 14.59375 23.210938 15.71875 C 20.410156 18.582031 17.546875 21.367188 14.742188 24.21875 Z M 37.578125 28.476562 C 36.785156 29.296875 35.679688 30.199219 36.027344 31.496094 C 36.820312 32.96875 38.242188 33.980469 39.367188 35.199219 C 40.125 35.898438 41.027344 37.035156 42.199219 36.515625 C 43.621094 35.628906 44.683594 34.300781 45.902344 33.160156 C 46.597656 32.398438 47.625 31.527344 47.214844 30.375 C 46.1875 28.824219 44.730469 27.621094 43.433594 26.304688 C 42.738281 25.707031 41.738281 24.753906 40.804688 25.5 C 39.570312 26.339844 38.621094 27.476562 37.578125 28.476562 Z M 10.773438 42.433594 C 10.203125 43.066406 9.394531 43.636719 9.300781 44.554688 C 9 46.46875 11.074219 47.449219 12.117188 48.734375 C 13.304688 49.714844 14.394531 51.769531 16.214844 51.121094 C 17.863281 50.125 19.03125 48.542969 20.425781 47.246094 C 21.152344 46.4375 22.324219 45.347656 21.660156 44.160156 C 20.410156 42.449219 18.777344 41.042969 17.277344 39.554688 C 16.515625 38.730469 15.203125 38.269531 14.253906 39.0625 C 12.972656 40.042969 11.941406 41.324219 10.773438 42.433594 Z M 31.898438 41.769531 C 29.050781 44.570312 26.265625 47.433594 23.398438 50.234375 C 22.417969 51.1875 21.421875 52.324219 21.40625 53.78125 C 21.167969 55.363281 21.816406 56.945312 22.972656 58.039062 C 25.316406 60.398438 27.71875 62.707031 30.03125 65.097656 C 31.027344 66.09375 31.976562 67.1875 33.132812 68.023438 C 35 69.402344 37.800781 69.101562 39.398438 67.457031 C 42.578125 64.304688 45.726562 61.125 48.890625 57.992188 C 50.824219 56.171875 50.996094 52.800781 49.035156 50.933594 C 45.964844 47.816406 42.863281 44.710938 39.761719 41.640625 C 38.480469 40.328125 36.613281 39.316406 34.746094 39.886719 C 33.652344 40.1875 32.71875 40.960938 31.898438 41.769531 Z M 31.898438 41.769531 " clip-rule="nonzero"/></clipPath><linearGradient x1="24.317875" gradientTransform="matrix(0.15824, 0, 0, 0.158265, 9.269011, 8.865709)" y1="-29.46717" x2="488.453585" gradientUnits="userSpaceOnUse" y2="474.381178" id="103307c6a9"><stop stop-opacity="1" stop-color="rgb(0%, 8.999634%, 62.69989%)" offset="0"/><stop stop-opacity="1" stop-color="rgb(0%, 8.999634%, 62.69989%)" offset="0.25"/><stop stop-opacity="1" stop-color="rgb(0%, 9.028625%, 62.705994%)" offset="0.3125"/><stop stop-opacity="1" stop-color="rgb(0%, 9.368896%, 62.783813%)" offset="0.316406"/><stop stop-opacity="1" stop-color="rgb(0%, 9.680176%, 62.854004%)" offset="0.320313"/><stop stop-opacity="1" stop-color="rgb(0%, 9.989929%, 62.924194%)" offset="0.324219"/><stop stop-opacity="1" stop-color="rgb(0%, 10.299683%, 62.995911%)" offset="0.328125"/><stop stop-opacity="1" stop-color="rgb(0%, 10.609436%, 63.066101%)" offset="0.332031"/><stop stop-opacity="1" stop-color="rgb(0%, 10.920715%, 63.137817%)" offset="0.335938"/><stop stop-opacity="1" stop-color="rgb(0%, 11.230469%, 63.208008%)" offset="0.339844"/><stop stop-opacity="1" stop-color="rgb(0%, 11.540222%, 63.278198%)" offset="0.34375"/><stop stop-opacity="1" stop-color="rgb(0%, 11.849976%, 63.348389%)" offset="0.347656"/><stop stop-opacity="1" stop-color="rgb(0%, 12.161255%, 63.420105%)" offset="0.351562"/><stop stop-opacity="1" stop-color="rgb(0%, 12.471008%, 63.490295%)" offset="0.355469"/><stop stop-opacity="1" stop-color="rgb(0%, 12.780762%, 63.562012%)" offset="0.359375"/><stop stop-opacity="1" stop-color="rgb(0%, 13.090515%, 63.632202%)" offset="0.363281"/><stop stop-opacity="1" stop-color="rgb(0%, 13.400269%, 63.702393%)" offset="0.367188"/><stop stop-opacity="1" stop-color="rgb(0%, 13.710022%, 63.772583%)" offset="0.371094"/><stop stop-opacity="1" stop-color="rgb(0%, 14.021301%, 63.844299%)" offset="0.375"/><stop stop-opacity="1" stop-color="rgb(0%, 14.331055%, 63.91449%)" offset="0.378906"/><stop stop-opacity="1" stop-color="rgb(0%, 14.640808%, 63.986206%)" offset="0.382813"/><stop stop-opacity="1" stop-color="rgb(0%, 14.950562%, 64.056396%)" offset="0.386719"/><stop stop-opacity="1" stop-color="rgb(0%, 15.261841%, 64.128113%)" offset="0.390625"/><stop stop-opacity="1" stop-color="rgb(0%, 15.571594%, 64.198303%)" offset="0.394531"/><stop stop-opacity="1" stop-color="rgb(0%, 15.881348%, 64.268494%)" offset="0.398438"/><stop stop-opacity="1" stop-color="rgb(0%, 16.191101%, 64.338684%)" offset="0.402344"/><stop stop-opacity="1" stop-color="rgb(0%, 16.50238%, 64.4104%)" offset="0.40625"/><stop stop-opacity="1" stop-color="rgb(0%, 16.812134%, 64.480591%)" offset="0.410156"/><stop stop-opacity="1" stop-color="rgb(0%, 17.121887%, 64.552307%)" offset="0.414063"/><stop stop-opacity="1" stop-color="rgb(0%, 17.431641%, 64.622498%)" offset="0.417969"/><stop stop-opacity="1" stop-color="rgb(0%, 17.74292%, 64.692688%)" offset="0.421875"/><stop stop-opacity="1" stop-color="rgb(0%, 18.052673%, 64.762878%)" offset="0.425781"/><stop stop-opacity="1" stop-color="rgb(0%, 18.362427%, 64.834595%)" offset="0.429688"/><stop stop-opacity="1" stop-color="rgb(0%, 18.67218%, 64.904785%)" offset="0.433594"/><stop stop-opacity="1" stop-color="rgb(0%, 18.983459%, 64.976501%)" offset="0.4375"/><stop stop-opacity="1" stop-color="rgb(0%, 19.293213%, 65.046692%)" offset="0.441406"/><stop stop-opacity="1" stop-color="rgb(0%, 19.602966%, 65.118408%)" offset="0.445312"/><stop stop-opacity="1" stop-color="rgb(0%, 19.91272%, 65.188599%)" offset="0.449219"/><stop stop-opacity="1" stop-color="rgb(0%, 20.223999%, 65.258789%)" offset="0.453125"/><stop stop-opacity="1" stop-color="rgb(0%, 20.533752%, 65.328979%)" offset="0.457031"/><stop stop-opacity="1" stop-color="rgb(0%, 20.843506%, 65.400696%)" offset="0.460938"/><stop stop-opacity="1" stop-color="rgb(0%, 21.153259%, 65.470886%)" offset="0.464844"/><stop stop-opacity="1" stop-color="rgb(0%, 21.463013%, 65.542603%)" offset="0.46875"/><stop stop-opacity="1" stop-color="rgb(0%, 21.772766%, 65.612793%)" offset="0.472656"/><stop stop-opacity="1" stop-color="rgb(0%, 22.084045%, 65.682983%)" offset="0.476563"/><stop stop-opacity="1" stop-color="rgb(0%, 22.393799%, 65.753174%)" offset="0.480469"/><stop stop-opacity="1" stop-color="rgb(0%, 22.703552%, 65.82489%)" offset="0.484375"/><stop stop-opacity="1" stop-color="rgb(0%, 23.013306%, 65.895081%)" offset="0.488281"/><stop stop-opacity="1" stop-color="rgb(0%, 23.324585%, 65.966797%)" offset="0.492188"/><stop stop-opacity="1" stop-color="rgb(0%, 23.634338%, 66.036987%)" offset="0.496094"/><stop stop-opacity="1" stop-color="rgb(0%, 23.944092%, 66.107178%)" offset="0.5"/><stop stop-opacity="1" stop-color="rgb(0%, 24.253845%, 66.177368%)" offset="0.503906"/><stop stop-opacity="1" stop-color="rgb(0%, 24.565125%, 66.249084%)" offset="0.507813"/><stop stop-opacity="1" stop-color="rgb(0%, 24.874878%, 66.319275%)" offset="0.511719"/><stop stop-opacity="1" stop-color="rgb(0%, 25.184631%, 66.390991%)" offset="0.515625"/><stop stop-opacity="1" stop-color="rgb(0%, 25.494385%, 66.461182%)" offset="0.519531"/><stop stop-opacity="1" stop-color="rgb(0%, 25.805664%, 66.532898%)" offset="0.523438"/><stop stop-opacity="1" stop-color="rgb(0%, 26.115417%, 66.603088%)" offset="0.527344"/><stop stop-opacity="1" stop-color="rgb(0%, 26.425171%, 66.673279%)" offset="0.53125"/><stop stop-opacity="1" stop-color="rgb(0%, 26.734924%, 66.743469%)" offset="0.535156"/><stop stop-opacity="1" stop-color="rgb(0%, 27.046204%, 66.815186%)" offset="0.539062"/><stop stop-opacity="1" stop-color="rgb(0%, 27.355957%, 66.885376%)" offset="0.542969"/><stop stop-opacity="1" stop-color="rgb(0%, 27.66571%, 66.957092%)" offset="0.546875"/><stop stop-opacity="1" stop-color="rgb(0%, 27.975464%, 67.027283%)" offset="0.550781"/><stop stop-opacity="1" stop-color="rgb(0%, 28.286743%, 67.097473%)" offset="0.554688"/><stop stop-opacity="1" stop-color="rgb(0%, 28.596497%, 67.167664%)" offset="0.558594"/><stop stop-opacity="1" stop-color="rgb(0%, 28.90625%, 67.23938%)" offset="0.5625"/><stop stop-opacity="1" stop-color="rgb(0%, 29.216003%, 67.30957%)" offset="0.566406"/><stop stop-opacity="1" stop-color="rgb(0%, 29.525757%, 67.381287%)" offset="0.570313"/><stop stop-opacity="1" stop-color="rgb(0%, 29.83551%, 67.451477%)" offset="0.574219"/><stop stop-opacity="1" stop-color="rgb(0%, 30.14679%, 67.521667%)" offset="0.578125"/><stop stop-opacity="1" stop-color="rgb(0%, 30.456543%, 67.591858%)" offset="0.582031"/><stop stop-opacity="1" stop-color="rgb(0%, 30.766296%, 67.663574%)" offset="0.585938"/><stop stop-opacity="1" stop-color="rgb(0%, 31.07605%, 67.733765%)" offset="0.589844"/><stop stop-opacity="1" stop-color="rgb(0%, 31.387329%, 67.805481%)" offset="0.59375"/><stop stop-opacity="1" stop-color="rgb(0%, 31.697083%, 67.875671%)" offset="0.597656"/><stop stop-opacity="1" stop-color="rgb(0%, 32.006836%, 67.947388%)" offset="0.601563"/><stop stop-opacity="1" stop-color="rgb(0%, 32.316589%, 68.017578%)" offset="0.605469"/><stop stop-opacity="1" stop-color="rgb(0%, 32.627869%, 68.087769%)" offset="0.609375"/><stop stop-opacity="1" stop-color="rgb(0%, 32.937622%, 68.157959%)" offset="0.613281"/><stop stop-opacity="1" stop-color="rgb(0%, 33.247375%, 68.229675%)" offset="0.617188"/><stop stop-opacity="1" stop-color="rgb(0%, 33.557129%, 68.299866%)" offset="0.621094"/><stop stop-opacity="1" stop-color="rgb(0%, 33.868408%, 68.371582%)" offset="0.625"/><stop stop-opacity="1" stop-color="rgb(0%, 34.178162%, 68.441772%)" offset="0.628906"/><stop stop-opacity="1" stop-color="rgb(0%, 34.487915%, 68.511963%)" offset="0.632812"/><stop stop-opacity="1" stop-color="rgb(0%, 34.797668%, 68.582153%)" offset="0.636719"/><stop stop-opacity="1" stop-color="rgb(0%, 35.108948%, 68.65387%)" offset="0.640625"/><stop stop-opacity="1" stop-color="rgb(0%, 35.418701%, 68.72406%)" offset="0.644531"/><stop stop-opacity="1" stop-color="rgb(0%, 35.728455%, 68.795776%)" offset="0.648438"/><stop stop-opacity="1" stop-color="rgb(0%, 36.038208%, 68.865967%)" offset="0.652344"/><stop stop-opacity="1" stop-color="rgb(0%, 36.347961%, 68.936157%)" offset="0.65625"/><stop stop-opacity="1" stop-color="rgb(0%, 36.657715%, 69.006348%)" offset="0.660156"/><stop stop-opacity="1" stop-color="rgb(0%, 36.968994%, 69.078064%)" offset="0.664062"/><stop stop-opacity="1" stop-color="rgb(0%, 37.278748%, 69.148254%)" offset="0.667969"/><stop stop-opacity="1" stop-color="rgb(0%, 37.588501%, 69.219971%)" offset="0.671875"/><stop stop-opacity="1" stop-color="rgb(0%, 37.898254%, 69.290161%)" offset="0.675781"/><stop stop-opacity="1" stop-color="rgb(0%, 38.209534%, 69.361877%)" offset="0.679688"/><stop stop-opacity="1" stop-color="rgb(0%, 38.519287%, 69.432068%)" offset="0.683594"/><stop stop-opacity="1" stop-color="rgb(0%, 38.829041%, 69.502258%)" offset="0.6875"/><stop stop-opacity="1" stop-color="rgb(0%, 39.138794%, 69.572449%)" offset="0.691406"/><stop stop-opacity="1" stop-color="rgb(0%, 39.450073%, 69.644165%)" offset="0.695312"/><stop stop-opacity="1" stop-color="rgb(0%, 39.759827%, 69.714355%)" offset="0.699219"/><stop stop-opacity="1" stop-color="rgb(0%, 40.06958%, 69.786072%)" offset="0.703125"/><stop stop-opacity="1" stop-color="rgb(0%, 40.379333%, 69.856262%)" offset="0.707031"/><stop stop-opacity="1" stop-color="rgb(0%, 40.690613%, 69.926453%)" offset="0.710938"/><stop stop-opacity="1" stop-color="rgb(0%, 41.000366%, 69.996643%)" offset="0.714844"/><stop stop-opacity="1" stop-color="rgb(0%, 41.31012%, 70.068359%)" offset="0.71875"/><stop stop-opacity="1" stop-color="rgb(0%, 41.619873%, 70.13855%)" offset="0.722656"/><stop stop-opacity="1" stop-color="rgb(0%, 41.931152%, 70.210266%)" offset="0.726562"/><stop stop-opacity="1" stop-color="rgb(0%, 42.240906%, 70.280457%)" offset="0.730469"/><stop stop-opacity="1" stop-color="rgb(0%, 42.550659%, 70.350647%)" offset="0.734375"/><stop stop-opacity="1" stop-color="rgb(0%, 42.860413%, 70.420837%)" offset="0.738281"/><stop stop-opacity="1" stop-color="rgb(0%, 43.171692%, 70.492554%)" offset="0.742188"/><stop stop-opacity="1" stop-color="rgb(0%, 43.481445%, 70.562744%)" offset="0.746094"/><stop stop-opacity="1" stop-color="rgb(0%, 43.791199%, 70.63446%)" offset="0.75"/><stop stop-opacity="1" stop-color="rgb(0%, 44.100952%, 70.704651%)" offset="0.753906"/><stop stop-opacity="1" stop-color="rgb(0%, 44.410706%, 70.776367%)" offset="0.757812"/><stop stop-opacity="1" stop-color="rgb(0%, 44.720459%, 70.846558%)" offset="0.761719"/><stop stop-opacity="1" stop-color="rgb(0%, 45.031738%, 70.916748%)" offset="0.765625"/><stop stop-opacity="1" stop-color="rgb(0%, 45.341492%, 70.986938%)" offset="0.769531"/><stop stop-opacity="1" stop-color="rgb(0%, 45.651245%, 71.058655%)" offset="0.773438"/><stop stop-opacity="1" stop-color="rgb(0%, 45.960999%, 71.128845%)" offset="0.777344"/><stop stop-opacity="1" stop-color="rgb(0%, 46.272278%, 71.200562%)" offset="0.78125"/><stop stop-opacity="1" stop-color="rgb(0%, 46.582031%, 71.270752%)" offset="0.785156"/><stop stop-opacity="1" stop-color="rgb(0%, 46.891785%, 71.340942%)" offset="0.789062"/><stop stop-opacity="1" stop-color="rgb(0%, 47.201538%, 71.411133%)" offset="0.792969"/><stop stop-opacity="1" stop-color="rgb(0%, 47.512817%, 71.482849%)" offset="0.796875"/><stop stop-opacity="1" stop-color="rgb(0%, 47.822571%, 71.55304%)" offset="0.800781"/><stop stop-opacity="1" stop-color="rgb(0%, 48.132324%, 71.624756%)" offset="0.804688"/><stop stop-opacity="1" stop-color="rgb(0%, 48.442078%, 71.694946%)" offset="0.808594"/><stop stop-opacity="1" stop-color="rgb(0%, 48.753357%, 71.765137%)" offset="0.8125"/><stop stop-opacity="1" stop-color="rgb(0%, 49.06311%, 71.835327%)" offset="0.816406"/><stop stop-opacity="1" stop-color="rgb(0%, 49.372864%, 71.907043%)" offset="0.820312"/><stop stop-opacity="1" stop-color="rgb(0%, 49.682617%, 71.977234%)" offset="0.824219"/><stop stop-opacity="1" stop-color="rgb(0%, 49.993896%, 72.04895%)" offset="0.828125"/><stop stop-opacity="1" stop-color="rgb(0%, 50.30365%, 72.119141%)" offset="0.832031"/><stop stop-opacity="1" stop-color="rgb(0%, 50.613403%, 72.190857%)" offset="0.835938"/><stop stop-opacity="1" stop-color="rgb(0%, 50.923157%, 72.261047%)" offset="0.839844"/><stop stop-opacity="1" stop-color="rgb(0%, 51.234436%, 72.331238%)" offset="0.84375"/><stop stop-opacity="1" stop-color="rgb(0%, 51.544189%, 72.401428%)" offset="0.847656"/><stop stop-opacity="1" stop-color="rgb(0%, 51.853943%, 72.473145%)" offset="0.851562"/><stop stop-opacity="1" stop-color="rgb(0%, 52.163696%, 72.543335%)" offset="0.855469"/><stop stop-opacity="1" stop-color="rgb(0%, 52.47345%, 72.615051%)" offset="0.859375"/><stop stop-opacity="1" stop-color="rgb(0%, 52.783203%, 72.685242%)" offset="0.863281"/><stop stop-opacity="1" stop-color="rgb(0%, 53.094482%, 72.755432%)" offset="0.867188"/><stop stop-opacity="1" stop-color="rgb(0%, 53.404236%, 72.825623%)" offset="0.871094"/><stop stop-opacity="1" stop-color="rgb(0%, 53.713989%, 72.897339%)" offset="0.875"/><stop stop-opacity="1" stop-color="rgb(0%, 54.023743%, 72.967529%)" offset="0.878906"/><stop stop-opacity="1" stop-color="rgb(0%, 54.335022%, 73.039246%)" offset="0.882812"/><stop stop-opacity="1" stop-color="rgb(0%, 54.644775%, 73.109436%)" offset="0.886719"/><stop stop-opacity="1" stop-color="rgb(0%, 54.954529%, 73.179626%)" offset="0.890625"/><stop stop-opacity="1" stop-color="rgb(0%, 55.264282%, 73.249817%)" offset="0.894531"/><stop stop-opacity="1" stop-color="rgb(0%, 55.575562%, 73.321533%)" offset="0.898438"/><stop stop-opacity="1" stop-color="rgb(0%, 55.885315%, 73.391724%)" offset="0.902344"/><stop stop-opacity="1" stop-color="rgb(0%, 56.195068%, 73.46344%)" offset="0.90625"/><stop stop-opacity="1" stop-color="rgb(0%, 56.504822%, 73.53363%)" offset="0.910156"/><stop stop-opacity="1" stop-color="rgb(0%, 56.816101%, 73.605347%)" offset="0.914062"/><stop stop-opacity="1" stop-color="rgb(0%, 57.125854%, 73.675537%)" offset="0.917969"/><stop stop-opacity="1" stop-color="rgb(0%, 57.435608%, 73.745728%)" offset="0.921875"/><stop stop-opacity="1" stop-color="rgb(0%, 57.745361%, 73.815918%)" offset="0.925781"/><stop stop-opacity="1" stop-color="rgb(0%, 58.056641%, 73.887634%)" offset="0.929688"/><stop stop-opacity="1" stop-color="rgb(0%, 58.366394%, 73.957825%)" offset="0.933594"/><stop stop-opacity="1" stop-color="rgb(0%, 58.676147%, 74.029541%)" offset="0.9375"/><stop stop-opacity="1" stop-color="rgb(0%, 58.985901%, 74.099731%)" offset="0.941406"/><stop stop-opacity="1" stop-color="rgb(0%, 59.295654%, 74.169922%)" offset="0.945312"/><stop stop-opacity="1" stop-color="rgb(0%, 59.605408%, 74.240112%)" offset="0.949219"/><stop stop-opacity="1" stop-color="rgb(0%, 59.916687%, 74.311829%)" offset="0.953125"/><stop stop-opacity="1" stop-color="rgb(0%, 60.22644%, 74.382019%)" offset="0.957031"/><stop stop-opacity="1" stop-color="rgb(0%, 60.536194%, 74.453735%)" offset="0.960938"/><stop stop-opacity="1" stop-color="rgb(0%, 60.845947%, 74.523926%)" offset="0.964844"/><stop stop-opacity="1" stop-color="rgb(0%, 61.157227%, 74.594116%)" offset="0.96875"/><stop stop-opacity="1" stop-color="rgb(0%, 61.46698%, 74.664307%)" offset="0.972656"/><stop stop-opacity="1" stop-color="rgb(0%, 61.776733%, 74.736023%)" offset="0.976562"/><stop stop-opacity="1" stop-color="rgb(0%, 62.086487%, 74.806213%)" offset="0.980469"/><stop stop-opacity="1" stop-color="rgb(0%, 62.397766%, 74.87793%)" offset="0.984375"/><stop stop-opacity="1" stop-color="rgb(0%, 62.70752%, 74.94812%)" offset="0.988281"/><stop stop-opacity="1" stop-color="rgb(0%, 63.017273%, 75.019836%)" offset="0.992188"/><stop stop-opacity="1" stop-color="rgb(0%, 63.327026%, 75.090027%)" offset="0.996094"/><stop stop-opacity="1" stop-color="rgb(0%, 63.638306%, 75.160217%)" offset="1"/></linearGradient></defs><g clip-path="url(#2e5a3c038c)"><g clip-path="url(#37b8ef4256)"><path fill="url(#103307c6a9)" d="M 9 7.996094 L 9 82.160156 L 88.5 82.160156 L 88.5 7.996094 Z M 9 7.996094 " fill-rule="nonzero"/></g></g><g fill="#2a2a2e" fill-opacity="1"><g transform="translate(103.257371, 66.424736)"><g><path d="M 20.90625 0.4375 C 28.359375 0.4375 36.953125 -4.171875 36.953125 -13 L 36.953125 -43.984375 L 30.609375 -43.984375 L 30.609375 -13.0625 C 30.609375 -8.265625 25.4375 -5.84375 20.90625 -5.84375 C 16.296875 -5.84375 11.140625 -8.203125 11.140625 -13 L 11.140625 -43.984375 L 4.796875 -43.984375 L 4.796875 -13.0625 C 4.796875 -4.171875 13.25 0.4375 20.90625 0.4375 Z M 20.90625 0.4375 "/></g></g></g><g fill="#2a2a2e" fill-opacity="1"><g transform="translate(144.993626, 66.424736)"><g><path d="M 4.671875 0 L 10.765625 0 L 10.765625 -43.546875 L 4.671875 -43.546875 Z M 4.671875 0 "/></g></g></g><g fill="#2a2a2e" fill-opacity="1"><g transform="translate(160.419245, 66.424736)"><g><path d="M 29.484375 -4.421875 L 29.484375 0 L 35.265625 0 L 35.265625 -33.96875 L 29.171875 -33.96875 L 29.171875 -15.359375 C 29.171875 -9.453125 25.6875 -4.90625 19.28125 -4.90625 C 11.9375 -4.90625 10.328125 -9.265625 10.328125 -15.546875 L 10.328125 -33.96875 L 4.234375 -33.96875 L 4.234375 -15.546875 C 4.234375 -5.90625 8.640625 0.5 18.84375 0.5 C 23.203125 0.5 27 -0.75 29.484375 -4.421875 Z M 29.484375 -4.421875 "/></g></g></g><g fill="#2a2a2e" fill-opacity="1"><g transform="translate(200.476102, 66.424736)"><g><path d="M 10.703125 -29.484375 L 10.703125 -33.59375 L 4.671875 -33.59375 L 4.671875 0 L 10.703125 0 L 10.703125 -18.21875 C 10.703125 -24.390625 15.421875 -28.921875 21.09375 -28.921875 C 22.078125 -28.921875 23.140625 -28.796875 24.203125 -28.484375 L 24.203125 -33.84375 C 22.828125 -34.15625 21.515625 -34.34375 20.21875 -34.34375 C 16.484375 -34.34375 13.125 -32.84375 10.703125 -29.484375 Z M 10.703125 -29.484375 "/></g></g></g><g fill="#2a2a2e" fill-opacity="1"><g transform="translate(226.60014, 66.424736)"><g><path d="M 39.5 -16.796875 C 39.5 -28.359375 30.546875 -34.21875 21.453125 -34.21875 C 12.3125 -34.21875 3.234375 -28.421875 3.234375 -16.796875 C 3.234375 -5.21875 12.25 0.625 21.28125 0.625 C 30.421875 0.625 39.5 -5.15625 39.5 -16.796875 Z M 9.328125 -16.796875 C 9.328125 -24.8125 15.359375 -28.796875 21.453125 -28.796875 C 27.4375 -28.796875 33.46875 -24.75 33.46875 -16.796875 C 33.46875 -8.890625 27.4375 -4.859375 21.390625 -4.859375 C 15.359375 -4.859375 9.328125 -8.828125 9.328125 -16.796875 Z M 9.328125 -16.796875 "/></g></g></g><g fill="#2a2a2e" fill-opacity="1"><g transform="translate(269.767003, 66.424736)"><g><path d="M 26.625 -33.65625 L 21.15625 -19.84375 L 17.046875 -8.15625 L 12.9375 -19.96875 L 7.40625 -33.65625 L 0.9375 -33.65625 L 14.625 0.25 L 19.46875 0.25 L 33.09375 -33.65625 Z M 26.625 -33.65625 "/></g></g></g><g fill="#2a2a2e" fill-opacity="1"><g transform="translate(303.914856, 66.424736)"><g><path d="M 37.6875 -18.28125 C 37.015625 -28.859375 28.796875 -34.15625 20.46875 -34.15625 C 11.5625 -34.15625 2.984375 -28.359375 2.984375 -16.796875 C 2.984375 -5.21875 11.6875 0.625 20.34375 0.625 C 27.25 0.625 34.15625 -3.046875 36.703125 -10.390625 L 30.421875 -10.390625 C 28.421875 -6.59375 24.5625 -4.796875 20.40625 -4.796875 C 15.359375 -4.796875 9.078125 -8.765625 9.078125 -15.359375 L 37.578125 -15.359375 C 37.6875 -15.921875 37.75 -16.546875 37.75 -17.234375 C 37.75 -17.609375 37.75 -17.921875 37.6875 -18.28125 Z M 31.28125 -20.40625 L 9.328125 -20.40625 C 10.578125 -26.375 15.546875 -28.796875 20.46875 -28.796875 C 25.3125 -28.796875 30.109375 -26.4375 31.28125 -20.40625 Z M 31.28125 -20.40625 "/></g></g></g><g fill="#2a2a2e" fill-opacity="1"><g transform="translate(344.966922, 66.424736)"><g><path d="M 10.703125 -29.484375 L 10.703125 -33.59375 L 4.671875 -33.59375 L 4.671875 0 L 10.703125 0 L 10.703125 -18.21875 C 10.703125 -24.390625 15.421875 -28.921875 21.09375 -28.921875 C 22.078125 -28.921875 23.140625 -28.796875 24.203125 -28.484375 L 24.203125 -33.84375 C 22.828125 -34.15625 21.515625 -34.34375 20.21875 -34.34375 C 16.484375 -34.34375 13.125 -32.84375 10.703125 -29.484375 Z M 10.703125 -29.484375 "/></g></g></g></svg>