<svg xmlns="http://www.w3.org/2000/svg" xmlns:xlink="http://www.w3.org/1999/xlink" width="500" zoomAndPan="magnify" viewBox="0 0 375 374.999991" height="500" preserveAspectRatio="xMidYMid meet" version="1.0"><defs><clipPath id="ec0d78dc13"><path d="M 10.746094 10.746094 L 363.996094 10.746094 L 363.996094 363.996094 L 10.746094 363.996094 Z M 10.746094 10.746094 " clip-rule="nonzero"/></clipPath><clipPath id="be6c16262b"><path d="M 39 10.746094 L 336 10.746094 L 336 109 L 39 109 Z M 39 10.746094 " clip-rule="nonzero"/></clipPath></defs><g clip-path="url(#ec0d78dc13)"><path fill="#231f20" d="M 187.496094 332.003906 C 107.6875 332.003906 42.988281 267.304688 42.988281 187.496094 C 42.988281 160.0625 50.632812 134.417969 63.902344 112.574219 C 64.859375 110.996094 65.847656 109.441406 66.863281 107.90625 C 66.902344 107.847656 66.941406 107.792969 66.980469 107.734375 C 92.855469 68.710938 137.167969 42.988281 187.496094 42.988281 C 237.898438 42.988281 282.269531 68.789062 308.125 107.90625 C 308.164062 107.96875 308.203125 108.023438 308.242188 108.082031 C 309.21875 109.5625 310.167969 111.058594 311.085938 112.574219 C 324.355469 134.417969 332.003906 160.0625 332.003906 187.496094 C 332.003906 267.304688 267.304688 332.003906 187.496094 332.003906 Z M 338.578125 95.726562 C 337.664062 94.207031 336.714844 92.710938 335.746094 91.230469 C 335.710938 91.171875 335.667969 91.117188 335.632812 91.054688 C 304.097656 42.703125 249.53125 10.746094 187.496094 10.746094 C 125.535156 10.746094 71.03125 42.625 39.476562 90.878906 C 39.4375 90.9375 39.394531 90.992188 39.359375 91.054688 C 38.351562 92.59375 37.363281 94.152344 36.410156 95.726562 C 20.125 122.472656 10.746094 153.890625 10.746094 187.496094 C 10.746094 285.109375 89.882812 364.242188 187.496094 364.242188 C 285.109375 364.242188 364.242188 285.109375 364.242188 187.496094 C 364.242188 153.890625 354.863281 122.472656 338.578125 95.726562 " fill-opacity="1" fill-rule="nonzero"/></g><path fill="#737373" d="M 187.496094 332.003906 C 107.6875 332.003906 42.988281 267.304688 42.988281 187.496094 C 42.988281 107.6875 107.6875 42.988281 187.496094 42.988281 C 267.304688 42.988281 332.003906 107.6875 332.003906 187.496094 C 332.003906 267.304688 267.304688 332.003906 187.496094 332.003906 Z M 187.496094 24.273438 C 97.347656 24.273438 24.273438 97.355469 24.273438 187.496094 C 24.273438 277.644531 97.347656 350.71875 187.496094 350.71875 C 277.644531 350.71875 350.71875 277.644531 350.71875 187.496094 C 350.71875 97.355469 277.644531 24.273438 187.496094 24.273438 " fill-opacity="1" fill-rule="nonzero"/><path fill="#737373" d="M 187.496094 246.515625 C 154.898438 246.515625 128.476562 220.09375 128.476562 187.496094 C 128.476562 154.898438 154.898438 128.476562 187.496094 128.476562 C 220.09375 128.476562 246.515625 154.898438 246.515625 187.496094 C 246.515625 220.09375 220.09375 246.515625 187.496094 246.515625 " fill-opacity="1" fill-rule="nonzero"/><path fill="#737373" d="M 350.414062 194.953125 L 309.050781 205.207031 L 304.476562 206.339844 L 254.628906 218.6875 C 247.421875 220.472656 241.921875 226.308594 240.566406 233.613281 C 238.082031 247 231.550781 283.25 228.121094 302.644531 C 227.660156 305.277344 227.722656 307.941406 228.28125 310.492188 C 228.605469 311.996094 229.105469 313.457031 229.765625 314.851562 C 230.507812 316.414062 231.449219 317.886719 232.585938 319.238281 L 237.332031 324.855469 C 205.84375 338.597656 164.5625 338.273438 138.46875 324.855469 L 143.210938 319.238281 C 144.289062 317.960938 145.191406 316.570312 145.910156 315.097656 C 146.59375 313.707031 147.101562 312.253906 147.453125 310.757812 C 148.070312 308.125 148.152344 305.367188 147.675781 302.644531 C 144.246094 283.25 137.714844 247 135.226562 233.613281 C 133.875 226.308594 128.375 220.472656 121.167969 218.6875 L 70.417969 206.113281 L 65.847656 204.980469 L 25.382812 194.953125 L 46.402344 144.503906 L 53.988281 156.5 C 56.597656 160.625 61.625 162.53125 66.3125 161.164062 C 68.882812 160.414062 72.050781 159.535156 75.769531 158.574219 C 77.515625 158.113281 79.382812 157.644531 81.363281 157.167969 C 104.1875 151.621094 142.351562 144.503906 187.894531 144.503906 C 232.769531 144.503906 270.484375 151.414062 293.414062 156.921875 C 295.390625 157.394531 297.261719 157.863281 299.011719 158.308594 C 303.175781 159.375 306.683594 160.347656 309.484375 161.164062 C 314.175781 162.53125 319.199219 160.625 321.808594 156.5 L 329.398438 144.503906 L 350.414062 194.953125 " fill-opacity="1" fill-rule="nonzero"/><path fill="#636363" d="M 154.480469 301.449219 C 150.945312 281.457031 144.425781 245.296875 142.023438 232.351562 C 140.179688 222.410156 132.644531 214.414062 122.832031 211.980469 L 34.851562 190.183594 C 34.851562 190.183594 74.179688 166.121094 77.5 165.257812 C 79.230469 164.804688 81.074219 164.34375 82.988281 163.878906 C 106.398438 158.195312 143.597656 151.414062 187.894531 151.414062 C 231.707031 151.414062 268.582031 158.0625 291.800781 163.640625 C 293.617188 164.078125 295.46875 164.535156 297.304688 165 C 300.832031 165.90625 340.941406 190.183594 340.941406 190.183594 L 307.390625 198.5 L 252.96875 211.980469 C 243.152344 214.414062 235.617188 222.410156 233.777344 232.355469 C 231.359375 245.359375 224.839844 281.515625 221.320312 301.441406 C 220.699219 304.949219 155.117188 305.089844 154.480469 301.449219 " fill-opacity="1" fill-rule="nonzero"/><path fill="#737373" d="M 187.496094 137 C 159.609375 137 137 159.609375 137 187.496094 C 137 220.09375 159.609375 246.515625 187.496094 246.515625 C 215.382812 246.515625 237.992188 220.09375 237.992188 187.496094 C 237.992188 159.609375 215.382812 137 187.496094 137 " fill-opacity="1" fill-rule="nonzero"/><path fill="#636363" d="M 187.496094 137 C 159.609375 137 137 159.609375 137 187.496094 C 137 215.382812 159.609375 237.992188 187.496094 237.992188 C 215.382812 237.992188 237.992188 215.382812 237.992188 187.496094 C 237.992188 159.609375 215.382812 137 187.496094 137 " fill-opacity="1" fill-rule="nonzero"/><path fill="#231f20" d="M 65.847656 204.980469 L 70.417969 206.113281 C 70.832031 189.296875 74.589844 172.5625 81.363281 157.167969 C 79.382812 157.644531 77.515625 158.113281 75.769531 158.574219 C 69.765625 173.265625 66.355469 189.214844 65.847656 204.980469 Z M 299.011719 158.308594 C 297.261719 157.863281 295.390625 157.394531 293.414062 156.921875 C 300.292969 172.457031 304.089844 189.355469 304.476562 206.339844 L 309.050781 205.207031 C 308.566406 189.273438 305.113281 173.148438 299.011719 158.308594 Z M 228.28125 310.492188 C 217.726562 313.886719 202.902344 316.210938 190.425781 316.210938 C 189.414062 316.210938 188.421875 316.195312 187.445312 316.164062 C 186.46875 316.195312 185.472656 316.210938 184.460938 316.210938 C 172.316406 316.210938 157.945312 314.007812 147.453125 310.757812 C 147.101562 312.253906 146.59375 313.707031 145.910156 315.097656 L 146.089844 315.15625 C 157.347656 318.644531 172.050781 320.816406 184.460938 320.816406 C 185.472656 320.816406 186.476562 320.800781 187.445312 320.769531 C 188.414062 320.800781 189.417969 320.816406 190.425781 320.816406 C 203.078125 320.816406 218.492188 318.484375 229.695312 314.871094 L 229.765625 314.851562 C 229.105469 313.457031 228.605469 311.996094 228.28125 310.492188 " fill-opacity="1" fill-rule="nonzero"/><path fill="#231f20" d="M 187.496094 230.488281 C 163.753906 230.488281 144.503906 211.238281 144.503906 187.496094 C 144.503906 163.753906 163.753906 144.503906 187.496094 144.503906 C 211.238281 144.503906 230.488281 163.753906 230.488281 187.496094 C 230.488281 211.238281 211.238281 230.488281 187.496094 230.488281 " fill-opacity="1" fill-rule="nonzero"/><path fill="#636363" d="M 187.496094 225.277344 C 166.632812 225.277344 149.71875 208.359375 149.71875 187.496094 C 149.71875 166.632812 166.632812 149.71875 187.496094 149.71875 C 208.359375 149.71875 225.273438 166.632812 225.273438 187.496094 C 225.273438 208.359375 208.359375 225.277344 187.496094 225.277344 " fill-opacity="1" fill-rule="nonzero"/><path fill="#231f20" d="M 36.410156 95.726562 L 63.902344 112.574219 C 64.859375 110.996094 65.847656 109.441406 66.863281 107.90625 L 39.359375 91.054688 C 38.351562 92.59375 37.363281 94.152344 36.410156 95.726562 Z M 335.632812 91.054688 L 308.125 107.90625 C 309.144531 109.441406 310.132812 110.996094 311.085938 112.574219 L 338.578125 95.726562 C 337.625 94.152344 336.640625 92.59375 335.632812 91.054688 " fill-opacity="1" fill-rule="nonzero"/><g clip-path="url(#be6c16262b)"><path fill="#636363" d="M 335.746094 91.230469 L 324.210938 98.296875 L 308.242188 108.082031 C 308.210938 108.023438 308.167969 107.960938 308.125 107.90625 C 307.71875 107.292969 307.316406 106.6875 306.902344 106.082031 C 306.484375 105.480469 306.070312 104.878906 305.648438 104.277344 C 304.808594 103.085938 303.945312 101.902344 303.0625 100.730469 C 302.628906 100.144531 302.179688 99.566406 301.734375 98.988281 C 300.386719 97.257812 299.007812 95.554688 297.585938 93.886719 C 297.144531 93.371094 296.703125 92.859375 296.261719 92.351562 C 296.203125 92.277344 296.136719 92.210938 296.078125 92.136719 C 295.136719 91.074219 294.183594 90.019531 293.214844 88.980469 C 292.222656 87.910156 291.207031 86.863281 290.179688 85.820312 C 288.640625 84.269531 287.070312 82.746094 285.457031 81.261719 C 284.921875 80.769531 284.378906 80.277344 283.835938 79.789062 C 283.289062 79.304688 282.742188 78.820312 282.195312 78.34375 C 281.09375 77.382812 279.976562 76.445312 278.839844 75.519531 C 278.273438 75.058594 277.707031 74.597656 277.132812 74.148438 C 276.5625 73.6875 275.984375 73.246094 275.40625 72.796875 C 275.390625 72.777344 275.363281 72.761719 275.34375 72.746094 C 274.78125 72.320312 274.21875 71.894531 273.65625 71.472656 C 273.066406 71.039062 272.476562 70.605469 271.882812 70.175781 C 271.289062 69.75 270.695312 69.328125 270.097656 68.910156 C 268.894531 68.070312 267.679688 67.25 266.453125 66.449219 C 265.886719 66.078125 265.320312 65.714844 264.75 65.347656 C 264.652344 65.285156 264.550781 65.226562 264.457031 65.167969 C 263.957031 64.851562 263.453125 64.539062 262.949219 64.226562 C 262.851562 64.167969 262.753906 64.113281 262.65625 64.050781 C 262.085938 63.699219 261.511719 63.355469 260.933594 63.015625 C 260.902344 62.996094 260.875 62.976562 260.847656 62.964844 C 260.257812 62.613281 259.664062 62.273438 259.070312 61.933594 C 258.972656 61.871094 258.871094 61.816406 258.769531 61.761719 C 258.246094 61.464844 257.71875 61.167969 257.191406 60.878906 C 256.917969 60.726562 256.648438 60.578125 256.375 60.429688 C 255.941406 60.195312 255.511719 59.960938 255.070312 59.730469 C 254.746094 59.554688 254.421875 59.386719 254.097656 59.21875 C 253.769531 59.050781 253.441406 58.878906 253.113281 58.710938 C 252.789062 58.542969 252.457031 58.375 252.125 58.214844 C 251.796875 58.050781 251.464844 57.882812 251.132812 57.722656 C 250.535156 57.429688 249.9375 57.136719 249.332031 56.851562 C 248.503906 56.457031 247.675781 56.074219 246.839844 55.699219 C 246.359375 55.480469 245.867188 55.261719 245.378906 55.046875 C 243.925781 54.410156 242.46875 53.800781 240.996094 53.21875 C 240.660156 53.085938 240.324219 52.953125 239.988281 52.816406 C 238.480469 52.230469 236.964844 51.671875 235.4375 51.132812 C 234.972656 50.972656 234.507812 50.808594 234.042969 50.652344 C 233.5625 50.488281 233.082031 50.324219 232.597656 50.167969 C 232.269531 50.058594 231.933594 49.953125 231.601562 49.84375 C 230.082031 49.359375 228.550781 48.890625 227.011719 48.457031 C 226.453125 48.296875 225.894531 48.144531 225.335938 47.996094 C 225.246094 47.96875 225.15625 47.945312 225.066406 47.921875 C 224.582031 47.792969 224.09375 47.664062 223.609375 47.539062 C 223.03125 47.390625 222.453125 47.242188 221.875 47.101562 C 221.421875 46.992188 220.96875 46.882812 220.507812 46.773438 C 220.203125 46.703125 219.894531 46.636719 219.582031 46.5625 C 219.210938 46.476562 218.84375 46.394531 218.472656 46.316406 C 218.15625 46.25 217.84375 46.179688 217.527344 46.117188 C 217.433594 46.089844 217.335938 46.074219 217.238281 46.054688 C 216.90625 45.980469 216.578125 45.917969 216.246094 45.847656 C 214.761719 45.550781 213.265625 45.273438 211.761719 45.019531 C 211.46875 44.96875 211.175781 44.917969 210.890625 44.871094 C 209.960938 44.71875 209.03125 44.578125 208.097656 44.449219 C 207.863281 44.414062 207.632812 44.378906 207.402344 44.347656 C 205.824219 44.132812 204.234375 43.9375 202.636719 43.777344 C 202.257812 43.734375 201.882812 43.691406 201.503906 43.660156 C 199.9375 43.507812 198.359375 43.378906 196.777344 43.28125 C 196.253906 43.25 195.734375 43.21875 195.210938 43.191406 C 194.984375 43.179688 194.765625 43.167969 194.542969 43.160156 C 194.058594 43.136719 193.570312 43.113281 193.082031 43.09375 C 192.523438 43.070312 191.964844 43.054688 191.402344 43.039062 C 191.277344 43.039062 191.152344 43.035156 191.027344 43.027344 C 190.476562 43.015625 189.921875 43.007812 189.367188 43 C 188.742188 42.992188 188.121094 42.988281 187.496094 42.988281 C 186.867188 42.988281 186.246094 42.992188 185.625 43 C 185.074219 43.007812 184.519531 43.015625 183.96875 43.027344 C 183.832031 43.035156 183.699219 43.039062 183.566406 43.039062 C 183.011719 43.058594 182.460938 43.070312 181.910156 43.09375 C 181.425781 43.113281 180.941406 43.136719 180.457031 43.160156 C 180.210938 43.167969 179.957031 43.179688 179.703125 43.195312 C 179.207031 43.222656 178.714844 43.25 178.214844 43.28125 C 177.75 43.3125 177.28125 43.34375 176.816406 43.378906 C 176.507812 43.398438 176.199219 43.421875 175.886719 43.449219 C 175.320312 43.492188 174.761719 43.539062 174.195312 43.59375 C 173.761719 43.632812 173.328125 43.675781 172.894531 43.714844 C 172.714844 43.734375 172.542969 43.753906 172.363281 43.773438 C 171.871094 43.820312 171.382812 43.875 170.902344 43.933594 C 170.296875 44 169.695312 44.070312 169.09375 44.148438 C 168.660156 44.203125 168.226562 44.257812 167.792969 44.320312 C 167.722656 44.328125 167.652344 44.339844 167.582031 44.347656 C 167.355469 44.378906 167.125 44.414062 166.898438 44.441406 C 166.816406 44.457031 166.734375 44.46875 166.652344 44.480469 C 165.898438 44.585938 165.144531 44.703125 164.390625 44.828125 C 164.3125 44.839844 164.238281 44.847656 164.164062 44.863281 C 163.90625 44.902344 163.652344 44.945312 163.394531 44.988281 C 162.898438 45.070312 162.410156 45.160156 161.914062 45.246094 C 161.371094 45.34375 160.828125 45.441406 160.289062 45.546875 C 159.753906 45.644531 159.222656 45.753906 158.695312 45.855469 C 158.359375 45.925781 158.027344 45.996094 157.695312 46.0625 C 157.320312 46.144531 156.941406 46.226562 156.566406 46.304688 C 156.078125 46.410156 155.59375 46.519531 155.113281 46.632812 C 154.339844 46.808594 153.574219 46.992188 152.808594 47.179688 C 152.332031 47.296875 151.855469 47.414062 151.382812 47.539062 C 150.222656 47.835938 149.078125 48.144531 147.9375 48.46875 C 147.894531 48.484375 147.855469 48.492188 147.816406 48.5 C 147.332031 48.640625 146.859375 48.777344 146.378906 48.917969 C 146.140625 48.996094 145.898438 49.0625 145.660156 49.136719 C 145.277344 49.25 144.902344 49.367188 144.523438 49.488281 C 144.070312 49.625 143.621094 49.765625 143.171875 49.917969 C 142.945312 49.984375 142.71875 50.058594 142.492188 50.132812 C 142.484375 50.136719 142.46875 50.140625 142.457031 50.144531 C 141.457031 50.472656 140.46875 50.808594 139.476562 51.160156 C 138.917969 51.351562 138.359375 51.550781 137.808594 51.757812 C 136.765625 52.132812 135.730469 52.53125 134.699219 52.9375 C 134.074219 53.1875 133.441406 53.433594 132.8125 53.691406 C 132.289062 53.90625 131.765625 54.121094 131.246094 54.347656 C 130.707031 54.574219 130.164062 54.800781 129.628906 55.042969 C 128.554688 55.507812 127.488281 55.988281 126.425781 56.488281 C 125.902344 56.734375 125.371094 56.984375 124.84375 57.238281 C 124.316406 57.492188 123.792969 57.746094 123.273438 58.007812 C 122.691406 58.296875 122.117188 58.589844 121.542969 58.882812 C 121.074219 59.117188 120.613281 59.359375 120.15625 59.605469 C 119.636719 59.871094 119.128906 60.148438 118.617188 60.429688 C 118.203125 60.65625 117.78125 60.878906 117.367188 61.117188 C 117.183594 61.21875 117 61.320312 116.808594 61.429688 C 116.398438 61.65625 115.988281 61.886719 115.585938 62.125 C 113.996094 63.039062 112.425781 63.976562 110.871094 64.953125 C 110.53125 65.167969 110.191406 65.375 109.855469 65.597656 C 109.703125 65.695312 109.546875 65.789062 109.394531 65.894531 C 108.988281 66.148438 108.589844 66.410156 108.195312 66.671875 C 107.695312 67.003906 107.195312 67.335938 106.699219 67.667969 C 106.132812 68.050781 105.574219 68.4375 105.007812 68.824219 C 105 68.832031 104.992188 68.84375 104.980469 68.84375 C 104.414062 69.238281 103.855469 69.636719 103.292969 70.042969 C 103.230469 70.085938 103.167969 70.128906 103.105469 70.175781 C 102.550781 70.578125 101.992188 70.984375 101.445312 71.390625 C 100.945312 71.765625 100.441406 72.144531 99.945312 72.519531 C 99.257812 73.039062 98.574219 73.570312 97.898438 74.109375 C 97.351562 74.542969 96.800781 74.984375 96.257812 75.425781 C 95.695312 75.886719 95.132812 76.355469 94.574219 76.824219 C 94.019531 77.289062 93.472656 77.757812 92.925781 78.226562 C 92.917969 78.226562 92.917969 78.230469 92.910156 78.242188 C 92.363281 78.722656 91.8125 79.199219 91.269531 79.6875 C 90.730469 80.171875 90.183594 80.660156 89.648438 81.15625 C 89.117188 81.648438 88.582031 82.144531 88.054688 82.648438 C 86.996094 83.648438 85.953125 84.667969 84.925781 85.703125 C 83.902344 86.738281 82.886719 87.789062 81.894531 88.855469 C 80.898438 89.917969 79.917969 91 78.957031 92.097656 C 78.476562 92.644531 77.996094 93.191406 77.523438 93.746094 C 76.101562 95.414062 74.722656 97.105469 73.378906 98.835938 C 72.925781 99.414062 72.484375 99.988281 72.046875 100.574219 C 71.605469 101.160156 71.171875 101.746094 70.738281 102.332031 C 70.308594 102.925781 69.882812 103.519531 69.457031 104.113281 C 69.039062 104.710938 68.617188 105.3125 68.203125 105.914062 C 67.796875 106.515625 67.382812 107.125 66.980469 107.734375 L 51.011719 97.949219 L 39.476562 90.878906 C 71.03125 42.625 125.535156 10.746094 187.496094 10.746094 C 249.53125 10.746094 304.097656 42.703125 335.632812 91.054688 C 335.667969 91.117188 335.710938 91.171875 335.746094 91.230469 " fill-opacity="1" fill-rule="nonzero"/></g><path fill="#737373" d="M 187.496094 24.273438 C 130.417969 24.273438 80.183594 53.574219 51.011719 97.949219 C 82.953125 116.269531 48.390625 108.734375 109.394531 65.894531 C 170.195312 25.828125 261.898438 37.730469 308.242188 108.082031 L 324.210938 98.296875 C 295.070312 53.730469 244.722656 24.273438 187.496094 24.273438 " fill-opacity="1" fill-rule="nonzero"/></svg>